# xmcd
#
# Track frame offsets:
#	150
#	15284
#	30390
#
# Disc length: 719 seconds
#
# Revision: 1
# Processed by: cddbd v1.5.2PL0 Copyright (c) Steve Scherf et al.
# Submitted via: EZCDAudioConverter 7.1.8.1
#
DISCID=1002cd03
DTITLE=Turn On - Holy water
DYEAR=2019
DGENRE=R&B
TTITLE0=You won't cheat me anymore
TTITLE1=Adios, goodbye
TTITLE2=Holy water
EXTD=
EXTT0=
EXTT1=
EXTT2=
PLAYORDER=
